<mxfile host="app.diagrams.net" modified="2020-07-23T00:02:52.246Z" agent="5.0 (Windows NT 10.0; Win64; x64) AppleWebKit/537.36 (KHTML, like Gecko) Chrome/83.0.4103.97 Safari/537.36" etag="Ca6MrLHXj1jHFmTUcfZr" version="13.5.1" type="github">
  <diagram name="Page-1" id="42789a77-a242-8287-6e28-9cd8cfd52e62">
    <mxGraphModel dx="2522" dy="713" grid="1" gridSize="10" guides="1" tooltips="1" connect="1" arrows="1" fold="1" page="1" pageScale="1" pageWidth="1100" pageHeight="850" background="#ffffff" math="0" shadow="0">
      <root>
        <mxCell id="0" />
        <mxCell id="1" parent="0" />
        <mxCell id="1ea317790d2ca983-12" style="edgeStyle=none;rounded=1;html=1;labelBackgroundColor=none;startArrow=none;startFill=0;startSize=5;endArrow=classicThin;endFill=1;endSize=5;jettySize=auto;orthogonalLoop=1;strokeColor=#B3B3B3;strokeWidth=1;fontFamily=Verdana;fontSize=12;exitX=0.767;exitY=0.971;exitDx=0;exitDy=0;exitPerimeter=0;" parent="1" source="1ea317790d2ca983-1" target="1ea317790d2ca983-2" edge="1">
          <mxGeometry relative="1" as="geometry">
            <mxPoint x="705" y="230" as="sourcePoint" />
          </mxGeometry>
        </mxCell>
        <mxCell id="R_vYnomnBMFbHn4On2Nr-1" value="包含" style="edgeLabel;html=1;align=center;verticalAlign=middle;resizable=0;points=[];" parent="1ea317790d2ca983-12" vertex="1" connectable="0">
          <mxGeometry x="-0.3751" y="2" relative="1" as="geometry">
            <mxPoint as="offset" />
          </mxGeometry>
        </mxCell>
        <mxCell id="1ea317790d2ca983-13" value="包含" style="edgeStyle=none;rounded=1;html=1;labelBackgroundColor=none;startArrow=none;startFill=0;startSize=5;endArrow=classicThin;endFill=1;endSize=5;jettySize=auto;orthogonalLoop=1;strokeColor=#B3B3B3;strokeWidth=1;fontFamily=Verdana;fontSize=12" parent="1" source="1ea317790d2ca983-1" target="1ea317790d2ca983-9" edge="1">
          <mxGeometry x="-0.1735" y="8" relative="1" as="geometry">
            <mxPoint as="offset" />
          </mxGeometry>
        </mxCell>
        <mxCell id="1ea317790d2ca983-14" value="包含" style="edgeStyle=none;rounded=1;html=1;labelBackgroundColor=none;startArrow=none;startFill=0;startSize=5;endArrow=classicThin;endFill=1;endSize=5;jettySize=auto;orthogonalLoop=1;strokeColor=#B3B3B3;strokeWidth=1;fontFamily=Verdana;fontSize=12" parent="1" source="1ea317790d2ca983-1" target="1ea317790d2ca983-3" edge="1">
          <mxGeometry relative="1" as="geometry" />
        </mxCell>
        <mxCell id="1ea317790d2ca983-1" value="JVM&amp;nbsp;&lt;span style=&quot;color: rgb(51 , 51 , 51) ; font-family: &amp;#34;arial&amp;#34; , &amp;#34;microsoft yahei&amp;#34; , &amp;#34;\\5fae软雅黑&amp;#34; , &amp;#34;\\5b8b体&amp;#34; , &amp;#34;malgun gothic&amp;#34; , &amp;#34;meiryo&amp;#34; , sans-serif ; font-size: 14px ; line-height: 26px ; text-align: justify ; background-color: rgb(247 , 248 , 250)&quot;&gt;knowledge&lt;/span&gt;" style="ellipse;whiteSpace=wrap;html=1;rounded=0;shadow=1;comic=0;labelBackgroundColor=none;strokeWidth=1;fontFamily=Verdana;fontSize=12;align=center;" parent="1" vertex="1">
          <mxGeometry x="505" y="130" width="120" height="70" as="geometry" />
        </mxCell>
        <mxCell id="1ea317790d2ca983-2" value="&lt;span&gt;高效实现&lt;/span&gt;" style="ellipse;whiteSpace=wrap;html=1;rounded=0;shadow=1;comic=0;labelBackgroundColor=none;strokeWidth=1;fontFamily=Verdana;fontSize=12;align=center;" parent="1" vertex="1">
          <mxGeometry x="667.5" y="280" width="75" height="50" as="geometry" />
        </mxCell>
        <mxCell id="1ea317790d2ca983-3" value="&lt;span&gt;代码优化&lt;/span&gt;" style="ellipse;whiteSpace=wrap;html=1;rounded=0;shadow=1;comic=0;labelBackgroundColor=none;strokeWidth=1;fontFamily=Verdana;fontSize=12;align=center;" parent="1" vertex="1">
          <mxGeometry x="910" y="270" width="75" height="50" as="geometry" />
        </mxCell>
        <mxCell id="1ea317790d2ca983-9" value="基本原理" style="ellipse;whiteSpace=wrap;html=1;rounded=0;shadow=1;comic=0;labelBackgroundColor=none;strokeWidth=1;fontFamily=Verdana;fontSize=12;align=center;" parent="1" vertex="1">
          <mxGeometry x="190" y="250" width="75" height="50" as="geometry" />
        </mxCell>
        <mxCell id="R_vYnomnBMFbHn4On2Nr-2" value="代码运行原理" style="ellipse;whiteSpace=wrap;html=1;rounded=0;shadow=1;comic=0;labelBackgroundColor=none;strokeWidth=1;fontFamily=Verdana;fontSize=12;align=center;" parent="1" vertex="1">
          <mxGeometry x="-50" y="380" width="75" height="50" as="geometry" />
        </mxCell>
        <mxCell id="umzAvnq0fMHwVmKHfZ-p-5" value="分为" style="rounded=0;orthogonalLoop=1;jettySize=auto;html=1;" edge="1" parent="1" source="R_vYnomnBMFbHn4On2Nr-3" target="umzAvnq0fMHwVmKHfZ-p-3">
          <mxGeometry relative="1" as="geometry">
            <mxPoint x="240" y="450" as="sourcePoint" />
          </mxGeometry>
        </mxCell>
        <mxCell id="umzAvnq0fMHwVmKHfZ-p-6" value="分为" style="edgeStyle=none;rounded=0;orthogonalLoop=1;jettySize=auto;html=1;exitX=0.5;exitY=1;exitDx=0;exitDy=0;" edge="1" parent="1" source="R_vYnomnBMFbHn4On2Nr-3" target="umzAvnq0fMHwVmKHfZ-p-2">
          <mxGeometry relative="1" as="geometry" />
        </mxCell>
        <mxCell id="R_vYnomnBMFbHn4On2Nr-3" value="数据类型" style="ellipse;whiteSpace=wrap;html=1;rounded=0;shadow=1;comic=0;labelBackgroundColor=none;strokeWidth=1;fontFamily=Verdana;fontSize=12;align=center;" parent="1" vertex="1">
          <mxGeometry x="190" y="390" width="75" height="50" as="geometry" />
        </mxCell>
        <mxCell id="R_vYnomnBMFbHn4On2Nr-4" value="加载Java类" style="ellipse;whiteSpace=wrap;html=1;rounded=0;shadow=1;comic=0;labelBackgroundColor=none;strokeWidth=1;fontFamily=Verdana;fontSize=12;align=center;" parent="1" vertex="1">
          <mxGeometry x="360" y="390" width="75" height="50" as="geometry" />
        </mxCell>
        <mxCell id="R_vYnomnBMFbHn4On2Nr-5" value="执行方法调用" style="ellipse;whiteSpace=wrap;html=1;rounded=0;shadow=1;comic=0;labelBackgroundColor=none;strokeWidth=1;fontFamily=Verdana;fontSize=12;align=center;" parent="1" vertex="1">
          <mxGeometry x="110" y="390" width="75" height="50" as="geometry" />
        </mxCell>
        <mxCell id="R_vYnomnBMFbHn4On2Nr-6" value="实现反射" style="ellipse;whiteSpace=wrap;html=1;rounded=0;shadow=1;comic=0;labelBackgroundColor=none;strokeWidth=1;fontFamily=Verdana;fontSize=12;align=center;" parent="1" vertex="1">
          <mxGeometry x="275" y="390" width="75" height="50" as="geometry" />
        </mxCell>
        <mxCell id="R_vYnomnBMFbHn4On2Nr-7" value="包含" style="edgeStyle=none;rounded=1;html=1;labelBackgroundColor=none;startArrow=none;startFill=0;startSize=5;endArrow=classicThin;endFill=1;endSize=5;jettySize=auto;orthogonalLoop=1;strokeColor=#B3B3B3;strokeWidth=1;fontFamily=Verdana;fontSize=12;entryX=0.5;entryY=0;entryDx=0;entryDy=0;" parent="1" target="R_vYnomnBMFbHn4On2Nr-2" edge="1">
          <mxGeometry x="-0.1735" y="8" relative="1" as="geometry">
            <mxPoint x="231.47216442797395" y="300.00374825620645" as="sourcePoint" />
            <mxPoint x="-20.000231721853368" y="381.90660382612407" as="targetPoint" />
            <mxPoint as="offset" />
          </mxGeometry>
        </mxCell>
        <mxCell id="R_vYnomnBMFbHn4On2Nr-8" value="包含" style="edgeStyle=none;rounded=1;html=1;labelBackgroundColor=none;startArrow=none;startFill=0;startSize=5;endArrow=classicThin;endFill=1;endSize=5;jettySize=auto;orthogonalLoop=1;strokeColor=#B3B3B3;strokeWidth=1;fontFamily=Verdana;fontSize=12;entryX=0.5;entryY=0;entryDx=0;entryDy=0;exitX=0.5;exitY=1;exitDx=0;exitDy=0;" parent="1" source="1ea317790d2ca983-9" target="R_vYnomnBMFbHn4On2Nr-3" edge="1">
          <mxGeometry x="-0.1735" y="8" relative="1" as="geometry">
            <mxPoint x="241.4721644279739" y="310.00374825620656" as="sourcePoint" />
            <mxPoint x="127.5" y="385" as="targetPoint" />
            <mxPoint as="offset" />
          </mxGeometry>
        </mxCell>
        <mxCell id="R_vYnomnBMFbHn4On2Nr-9" value="包含" style="edgeStyle=none;rounded=1;html=1;labelBackgroundColor=none;startArrow=none;startFill=0;startSize=5;endArrow=classicThin;endFill=1;endSize=5;jettySize=auto;orthogonalLoop=1;strokeColor=#B3B3B3;strokeWidth=1;fontFamily=Verdana;fontSize=12;" parent="1" target="R_vYnomnBMFbHn4On2Nr-4" edge="1">
          <mxGeometry x="-0.1735" y="8" relative="1" as="geometry">
            <mxPoint x="230" y="300" as="sourcePoint" />
            <mxPoint x="137.5" y="395" as="targetPoint" />
            <mxPoint as="offset" />
          </mxGeometry>
        </mxCell>
        <mxCell id="R_vYnomnBMFbHn4On2Nr-10" value="包含" style="edgeStyle=none;rounded=1;html=1;labelBackgroundColor=none;startArrow=none;startFill=0;startSize=5;endArrow=classicThin;endFill=1;endSize=5;jettySize=auto;orthogonalLoop=1;strokeColor=#B3B3B3;strokeWidth=1;fontFamily=Verdana;fontSize=12;entryX=0.5;entryY=0;entryDx=0;entryDy=0;" parent="1" target="R_vYnomnBMFbHn4On2Nr-5" edge="1">
          <mxGeometry x="-0.1735" y="8" relative="1" as="geometry">
            <mxPoint x="230" y="300" as="sourcePoint" />
            <mxPoint x="147.5" y="405" as="targetPoint" />
            <mxPoint as="offset" />
          </mxGeometry>
        </mxCell>
        <mxCell id="R_vYnomnBMFbHn4On2Nr-11" value="包含" style="edgeStyle=none;rounded=1;html=1;labelBackgroundColor=none;startArrow=none;startFill=0;startSize=5;endArrow=classicThin;endFill=1;endSize=5;jettySize=auto;orthogonalLoop=1;strokeColor=#B3B3B3;strokeWidth=1;fontFamily=Verdana;fontSize=12;" parent="1" target="R_vYnomnBMFbHn4On2Nr-6" edge="1">
          <mxGeometry x="-0.1735" y="8" relative="1" as="geometry">
            <mxPoint x="230" y="300" as="sourcePoint" />
            <mxPoint x="157.5" y="415" as="targetPoint" />
            <mxPoint as="offset" />
          </mxGeometry>
        </mxCell>
        <mxCell id="R_vYnomnBMFbHn4On2Nr-12" value="编译源码" style="ellipse;whiteSpace=wrap;html=1;rounded=0;shadow=1;comic=0;labelBackgroundColor=none;strokeWidth=1;fontFamily=Verdana;fontSize=12;align=center;" parent="1" vertex="1">
          <mxGeometry x="560" y="405" width="75" height="50" as="geometry" />
        </mxCell>
        <mxCell id="R_vYnomnBMFbHn4On2Nr-13" value="注解解释器" style="ellipse;whiteSpace=wrap;html=1;rounded=0;shadow=1;comic=0;labelBackgroundColor=none;strokeWidth=1;fontFamily=Verdana;fontSize=12;align=center;" parent="1" vertex="1">
          <mxGeometry x="650" y="405" width="75" height="50" as="geometry" />
        </mxCell>
        <mxCell id="R_vYnomnBMFbHn4On2Nr-14" value="编译器的优化" style="ellipse;whiteSpace=wrap;html=1;rounded=0;shadow=1;comic=0;labelBackgroundColor=none;strokeWidth=1;fontFamily=Verdana;fontSize=12;align=center;" parent="1" vertex="1">
          <mxGeometry x="740" y="405" width="75" height="50" as="geometry" />
        </mxCell>
        <mxCell id="R_vYnomnBMFbHn4On2Nr-15" value="包含" style="edgeStyle=none;rounded=1;html=1;labelBackgroundColor=none;startArrow=none;startFill=0;startSize=5;endArrow=classicThin;endFill=1;endSize=5;jettySize=auto;orthogonalLoop=1;strokeColor=#B3B3B3;strokeWidth=1;fontFamily=Verdana;fontSize=12;exitX=0.38;exitY=0.98;exitDx=0;exitDy=0;entryX=0.5;entryY=0;entryDx=0;entryDy=0;exitPerimeter=0;" parent="1" source="1ea317790d2ca983-2" target="R_vYnomnBMFbHn4On2Nr-12" edge="1">
          <mxGeometry x="-0.1735" y="8" relative="1" as="geometry">
            <mxPoint x="380" y="340" as="sourcePoint" />
            <mxPoint x="465.7228244389589" y="419.6474994756627" as="targetPoint" />
            <mxPoint as="offset" />
          </mxGeometry>
        </mxCell>
        <mxCell id="R_vYnomnBMFbHn4On2Nr-17" value="包含" style="edgeStyle=none;rounded=1;html=1;labelBackgroundColor=none;startArrow=none;startFill=0;startSize=5;endArrow=classicThin;endFill=1;endSize=5;jettySize=auto;orthogonalLoop=1;strokeColor=#B3B3B3;strokeWidth=1;fontFamily=Verdana;fontSize=12;" parent="1" target="R_vYnomnBMFbHn4On2Nr-13" edge="1">
          <mxGeometry x="-0.1735" y="8" relative="1" as="geometry">
            <mxPoint x="697" y="331" as="sourcePoint" />
            <mxPoint x="607.5" y="415" as="targetPoint" />
            <mxPoint as="offset" />
          </mxGeometry>
        </mxCell>
        <mxCell id="R_vYnomnBMFbHn4On2Nr-18" value="包含" style="edgeStyle=none;rounded=1;html=1;labelBackgroundColor=none;startArrow=none;startFill=0;startSize=5;endArrow=classicThin;endFill=1;endSize=5;jettySize=auto;orthogonalLoop=1;strokeColor=#B3B3B3;strokeWidth=1;fontFamily=Verdana;fontSize=12;entryX=0.5;entryY=0;entryDx=0;entryDy=0;exitX=0.5;exitY=1;exitDx=0;exitDy=0;" parent="1" source="1ea317790d2ca983-2" target="R_vYnomnBMFbHn4On2Nr-14" edge="1">
          <mxGeometry x="-0.1735" y="8" relative="1" as="geometry">
            <mxPoint x="707" y="341" as="sourcePoint" />
            <mxPoint x="707.5" y="415" as="targetPoint" />
            <mxPoint as="offset" />
          </mxGeometry>
        </mxCell>
        <mxCell id="R_vYnomnBMFbHn4On2Nr-19" value="监控程序" style="ellipse;whiteSpace=wrap;html=1;rounded=0;shadow=1;comic=0;labelBackgroundColor=none;strokeWidth=1;fontFamily=Verdana;fontSize=12;align=center;" parent="1" vertex="1">
          <mxGeometry x="850" y="390" width="75" height="50" as="geometry" />
        </mxCell>
        <mxCell id="R_vYnomnBMFbHn4On2Nr-20" value="JMH评估代码性能" style="ellipse;whiteSpace=wrap;html=1;rounded=0;shadow=1;comic=0;labelBackgroundColor=none;strokeWidth=1;fontFamily=Verdana;fontSize=12;align=center;" parent="1" vertex="1">
          <mxGeometry x="950" y="390" width="75" height="50" as="geometry" />
        </mxCell>
        <mxCell id="R_vYnomnBMFbHn4On2Nr-21" value="与C++代码交互" style="ellipse;whiteSpace=wrap;html=1;rounded=0;shadow=1;comic=0;labelBackgroundColor=none;strokeWidth=1;fontFamily=Verdana;fontSize=12;align=center;" parent="1" vertex="1">
          <mxGeometry x="1050" y="390" width="75" height="50" as="geometry" />
        </mxCell>
        <mxCell id="R_vYnomnBMFbHn4On2Nr-24" value="包含" style="edgeStyle=none;rounded=1;html=1;labelBackgroundColor=none;startArrow=none;startFill=0;startSize=5;endArrow=classicThin;endFill=1;endSize=5;jettySize=auto;orthogonalLoop=1;strokeColor=#B3B3B3;strokeWidth=1;fontFamily=Verdana;fontSize=12;entryX=0.5;entryY=0;entryDx=0;entryDy=0;exitX=0.5;exitY=1;exitDx=0;exitDy=0;" parent="1" source="1ea317790d2ca983-3" target="R_vYnomnBMFbHn4On2Nr-19" edge="1">
          <mxGeometry x="-0.1735" y="8" relative="1" as="geometry">
            <mxPoint x="715" y="340" as="sourcePoint" />
            <mxPoint x="787.5" y="415" as="targetPoint" />
            <mxPoint as="offset" />
          </mxGeometry>
        </mxCell>
        <mxCell id="R_vYnomnBMFbHn4On2Nr-25" value="包含" style="edgeStyle=none;rounded=1;html=1;labelBackgroundColor=none;startArrow=none;startFill=0;startSize=5;endArrow=classicThin;endFill=1;endSize=5;jettySize=auto;orthogonalLoop=1;strokeColor=#B3B3B3;strokeWidth=1;fontFamily=Verdana;fontSize=12;entryX=0.5;entryY=0;entryDx=0;entryDy=0;" parent="1" target="R_vYnomnBMFbHn4On2Nr-20" edge="1">
          <mxGeometry x="-0.1735" y="8" relative="1" as="geometry">
            <mxPoint x="950" y="320" as="sourcePoint" />
            <mxPoint x="897.5" y="400" as="targetPoint" />
            <mxPoint as="offset" />
          </mxGeometry>
        </mxCell>
        <mxCell id="R_vYnomnBMFbHn4On2Nr-26" value="包含" style="edgeStyle=none;rounded=1;html=1;labelBackgroundColor=none;startArrow=none;startFill=0;startSize=5;endArrow=classicThin;endFill=1;endSize=5;jettySize=auto;orthogonalLoop=1;strokeColor=#B3B3B3;strokeWidth=1;fontFamily=Verdana;fontSize=12;exitX=0.5;exitY=1;exitDx=0;exitDy=0;" parent="1" source="1ea317790d2ca983-3" target="R_vYnomnBMFbHn4On2Nr-21" edge="1">
          <mxGeometry x="-0.1735" y="8" relative="1" as="geometry">
            <mxPoint x="957.5" y="330" as="sourcePoint" />
            <mxPoint x="897.5" y="400" as="targetPoint" />
            <mxPoint as="offset" />
          </mxGeometry>
        </mxCell>
        <mxCell id="umzAvnq0fMHwVmKHfZ-p-1" value="Focus Question:JVM的知识结构组成？" style="rounded=1;whiteSpace=wrap;html=1;" vertex="1" parent="1">
          <mxGeometry x="320" y="50" width="490" height="50" as="geometry" />
        </mxCell>
        <mxCell id="umzAvnq0fMHwVmKHfZ-p-2" value="引用数据类型" style="ellipse;whiteSpace=wrap;html=1;rounded=0;shadow=1;comic=0;labelBackgroundColor=none;strokeWidth=1;fontFamily=Verdana;fontSize=12;align=center;" vertex="1" parent="1">
          <mxGeometry x="245" y="510" width="75" height="50" as="geometry" />
        </mxCell>
        <mxCell id="umzAvnq0fMHwVmKHfZ-p-10" value="分为" style="edgeStyle=none;rounded=0;orthogonalLoop=1;jettySize=auto;html=1;exitX=0.5;exitY=1;exitDx=0;exitDy=0;" edge="1" parent="1" source="umzAvnq0fMHwVmKHfZ-p-3" target="umzAvnq0fMHwVmKHfZ-p-8">
          <mxGeometry relative="1" as="geometry" />
        </mxCell>
        <mxCell id="umzAvnq0fMHwVmKHfZ-p-11" value="分为" style="edgeStyle=none;rounded=0;orthogonalLoop=1;jettySize=auto;html=1;exitX=0.5;exitY=1;exitDx=0;exitDy=0;entryX=0.5;entryY=0;entryDx=0;entryDy=0;" edge="1" parent="1" source="umzAvnq0fMHwVmKHfZ-p-3" target="umzAvnq0fMHwVmKHfZ-p-9">
          <mxGeometry relative="1" as="geometry" />
        </mxCell>
        <mxCell id="umzAvnq0fMHwVmKHfZ-p-3" value="原始数据类型" style="ellipse;whiteSpace=wrap;html=1;rounded=0;shadow=1;comic=0;labelBackgroundColor=none;strokeWidth=1;fontFamily=Verdana;fontSize=12;align=center;" vertex="1" parent="1">
          <mxGeometry x="150" y="510" width="75" height="50" as="geometry" />
        </mxCell>
        <mxCell id="umzAvnq0fMHwVmKHfZ-p-12" value="例如" style="edgeStyle=none;rounded=0;orthogonalLoop=1;jettySize=auto;html=1;exitX=0.5;exitY=1;exitDx=0;exitDy=0;" edge="1" parent="1" source="umzAvnq0fMHwVmKHfZ-p-8" target="umzAvnq0fMHwVmKHfZ-p-14">
          <mxGeometry relative="1" as="geometry">
            <mxPoint x="110" y="690" as="targetPoint" />
          </mxGeometry>
        </mxCell>
        <mxCell id="umzAvnq0fMHwVmKHfZ-p-16" value="l例如" style="edgeStyle=none;rounded=0;orthogonalLoop=1;jettySize=auto;html=1;exitX=0.5;exitY=1;exitDx=0;exitDy=0;" edge="1" parent="1" source="umzAvnq0fMHwVmKHfZ-p-8" target="umzAvnq0fMHwVmKHfZ-p-15">
          <mxGeometry relative="1" as="geometry" />
        </mxCell>
        <mxCell id="umzAvnq0fMHwVmKHfZ-p-8" value="整数类型" style="ellipse;whiteSpace=wrap;html=1;rounded=0;shadow=1;comic=0;labelBackgroundColor=none;strokeWidth=1;fontFamily=Verdana;fontSize=12;align=center;" vertex="1" parent="1">
          <mxGeometry x="100" y="610" width="75" height="50" as="geometry" />
        </mxCell>
        <mxCell id="umzAvnq0fMHwVmKHfZ-p-9" value="浮点类型" style="ellipse;whiteSpace=wrap;html=1;rounded=0;shadow=1;comic=0;labelBackgroundColor=none;strokeWidth=1;fontFamily=Verdana;fontSize=12;align=center;" vertex="1" parent="1">
          <mxGeometry x="190" y="610" width="75" height="50" as="geometry" />
        </mxCell>
        <mxCell id="umzAvnq0fMHwVmKHfZ-p-14" value="byte" style="ellipse;whiteSpace=wrap;html=1;rounded=0;shadow=1;comic=0;labelBackgroundColor=none;strokeWidth=1;fontFamily=Verdana;fontSize=12;align=center;" vertex="1" parent="1">
          <mxGeometry x="25" y="750" width="75" height="50" as="geometry" />
        </mxCell>
        <mxCell id="umzAvnq0fMHwVmKHfZ-p-15" value="int" style="ellipse;whiteSpace=wrap;html=1;rounded=0;shadow=1;comic=0;labelBackgroundColor=none;strokeWidth=1;fontFamily=Verdana;fontSize=12;align=center;" vertex="1" parent="1">
          <mxGeometry x="110" y="750" width="75" height="50" as="geometry" />
        </mxCell>
        <mxCell id="umzAvnq0fMHwVmKHfZ-p-17" value="例如" style="edgeStyle=none;rounded=0;orthogonalLoop=1;jettySize=auto;html=1;exitX=0.5;exitY=1;exitDx=0;exitDy=0;" edge="1" parent="1" target="umzAvnq0fMHwVmKHfZ-p-19" source="umzAvnq0fMHwVmKHfZ-p-9">
          <mxGeometry relative="1" as="geometry">
            <mxPoint x="260" y="750" as="targetPoint" />
            <mxPoint x="287.5" y="720" as="sourcePoint" />
          </mxGeometry>
        </mxCell>
        <mxCell id="umzAvnq0fMHwVmKHfZ-p-18" value="l例如" style="edgeStyle=none;rounded=0;orthogonalLoop=1;jettySize=auto;html=1;exitX=0.5;exitY=1;exitDx=0;exitDy=0;" edge="1" parent="1" target="umzAvnq0fMHwVmKHfZ-p-20" source="umzAvnq0fMHwVmKHfZ-p-9">
          <mxGeometry relative="1" as="geometry">
            <mxPoint x="287.5" y="720" as="sourcePoint" />
          </mxGeometry>
        </mxCell>
        <mxCell id="umzAvnq0fMHwVmKHfZ-p-19" value="double" style="ellipse;whiteSpace=wrap;html=1;rounded=0;shadow=1;comic=0;labelBackgroundColor=none;strokeWidth=1;fontFamily=Verdana;fontSize=12;align=center;" vertex="1" parent="1">
          <mxGeometry x="200" y="750" width="75" height="50" as="geometry" />
        </mxCell>
        <mxCell id="umzAvnq0fMHwVmKHfZ-p-20" value="float" style="ellipse;whiteSpace=wrap;html=1;rounded=0;shadow=1;comic=0;labelBackgroundColor=none;strokeWidth=1;fontFamily=Verdana;fontSize=12;align=center;" vertex="1" parent="1">
          <mxGeometry x="280" y="750" width="75" height="50" as="geometry" />
        </mxCell>
      </root>
    </mxGraphModel>
  </diagram>
</mxfile>
